<?xml version="1.0" ?><svg height="32" id="svg18864" version="1.1" viewBox="0 0 8.4666665 8.4666669" width="32" xmlns="http://www.w3.org/2000/svg" xmlns:cc="http://creativecommons.org/ns#" xmlns:dc="http://purl.org/dc/elements/1.1/" xmlns:inkscape="http://www.inkscape.org/namespaces/inkscape" xmlns:rdf="http://www.w3.org/1999/02/22-rdf-syntax-ns#" xmlns:sodipodi="http://sodipodi.sourceforge.net/DTD/sodipodi-0.dtd" xmlns:svg="http://www.w3.org/2000/svg"><defs id="defs18858"/><g id="layer1" transform="translate(0,-288.53332)"><path d="m 2.1272619,289.06223 -0.016537,3.70417 H 0.53045915 l 3.71295075,3.70468 3.6927976,-3.70468 H 6.3595607 v -3.70417 z m 1.8510488,1.05833 h 0.5291666 v 0.3142 c 0.3062103,0.11042 0.5291667,0.40199 0.5291667,0.74414 H 4.5074773 c 0,-0.14926 -0.1153239,-0.26459 -0.2645833,-0.26459 -0.1492594,0 -0.2645833,0.11533 -0.2645833,0.26459 0,0.14926 0.1153239,0.26458 0.2645833,0.26458 0.4352422,0 0.79375,0.35851 0.79375,0.79375 0,0.34215 -0.2229564,0.63371 -0.5291667,0.74414 v 0.31419 H 3.9783107 v -0.31419 C 3.6721004,292.87094 3.449144,292.57938 3.449144,292.23723 h 0.5291667 c 0,0.14926 0.1153239,0.26458 0.2645833,0.26458 0.1492594,0 0.2645833,-0.11532 0.2645833,-0.26458 0,-0.14926 -0.1153239,-0.26458 -0.2645833,-0.26458 -0.4352422,0 -0.79375,-0.35851 -0.79375,-0.79375 0,-0.34215 0.2229564,-0.63372 0.5291667,-0.74414 z" id="path7112" style="color:#000000;font-style:normal;font-variant:normal;font-weight:normal;font-stretch:normal;font-size:medium;line-height:normal;font-family:sans-serif;font-variant-ligatures:normal;font-variant-position:normal;font-variant-caps:normal;font-variant-numeric:normal;font-variant-alternates:normal;font-feature-settings:normal;text-indent:0;text-align:start;text-decoration:none;text-decoration-line:none;text-decoration-style:solid;text-decoration-color:#000000;letter-spacing:normal;word-spacing:normal;text-transform:none;writing-mode:lr-tb;direction:ltr;text-orientation:mixed;dominant-baseline:auto;baseline-shift:baseline;text-anchor:start;white-space:normal;shape-padding:0;clip-rule:nonzero;display:inline;overflow:visible;visibility:visible;opacity:1;isolation:auto;mix-blend-mode:normal;color-interpolation:sRGB;color-interpolation-filters:linearRGB;solid-color:#000000;solid-opacity:1;vector-effect:none;fill:#000000;fill-opacity:1;fill-rule:nonzero;stroke:none;stroke-width:0.5291667;stroke-linecap:butt;stroke-linejoin:miter;stroke-miterlimit:4;stroke-dasharray:none;stroke-dashoffset:0;stroke-opacity:1;color-rendering:auto;image-rendering:auto;shape-rendering:auto;text-rendering:auto;enable-background:accumulate"/></g></svg>